<svg width="62" height="14" viewBox="0 0 62 14" fill="none" xmlns="http://www.w3.org/2000/svg">
  <path
    d="M7.99097 14C5.49011 14 3.17922 12.6658 1.92879 10.5C0.678359 8.33419 0.678359 5.66581 1.92879 3.5C3.17922 1.33419 5.49011 -3.72657e-08 7.99097 0C11.857 5.76078e-08 14.991 3.13401 14.991 7C14.991 10.866 11.857 14 7.99097 14V14Z"
    fill="white"/>
  <path
    d="M31.002 14C28.5011 14 26.1902 12.6658 24.9398 10.5C23.6893 8.33419 23.6893 5.66581 24.9398 3.5C26.1902 1.33419 28.5011 -3.72657e-08 31.002 0C34.8679 5.76078e-08 38.002 3.13401 38.002 7C38.002 10.866 34.8679 14 31.002 14V14Z"
    fill="white"/>
  <path
    d="M54.0129 14C51.5121 14 49.2012 12.6658 47.9508 10.5C46.7003 8.33419 46.7003 5.66581 47.9508 3.5C49.2012 1.33419 51.5121 -3.72657e-08 54.0129 0C57.8789 5.76078e-08 61.0129 3.13401 61.0129 7C61.0129 10.866 57.8789 14 54.0129 14V14Z"
    fill="white"/>
</svg>
